<?xml version="1.0" encoding="utf-8"?>
<!-- Generator: Adobe Illustrator 15.0.2, SVG Export Plug-In . SVG Version: 6.00 Build 0)  -->
<!DOCTYPE svg PUBLIC "-//W3C//DTD SVG 1.1//EN" "http://www.w3.org/Graphics/SVG/1.1/DTD/svg11.dtd">
<svg version="1.1" id="Layer_2" xmlns="http://www.w3.org/2000/svg" xmlns:xlink="http://www.w3.org/1999/xlink" x="0px" y="0px"
	 width="612px" height="612px" viewBox="0 0 612 612" enable-background="new 0 0 612 612" xml:space="preserve">
<g>
	<path fill="#333333" d="M421.75,287.875h-95.625V192.25c0-10.557-8.568-19.125-19.125-19.125c-10.558,0-19.125,8.568-19.125,19.125
		v95.625H192.25c-10.558,0-19.125,8.568-19.125,19.125c0,10.558,8.567,19.125,19.125,19.125h95.625v95.625
		c0,10.558,8.567,19.125,19.125,19.125c10.557,0,19.125-8.567,19.125-19.125v-95.625h95.625c10.557,0,19.125-8.567,19.125-19.125
		C440.875,296.443,432.307,287.875,421.75,287.875z"/>
	<path fill="none" stroke="#333333" stroke-width="30" stroke-miterlimit="10" d="M524.281,19h-433.5
		c-39.9,0-72.25,32.35-72.25,72.25v433.5c0,39.9,32.35,72.25,72.25,72.25h433.5c39.9,0,72.25-32.35,72.25-72.25V91.25
		C596.531,51.35,564.182,19,524.281,19z"/>
</g>
</svg>
