<?xml version="1.0" encoding="utf-8"?>
<!-- Generator: Adobe Illustrator 15.0.2, SVG Export Plug-In . SVG Version: 6.00 Build 0)  -->
<!DOCTYPE svg PUBLIC "-//W3C//DTD SVG 1.1//EN" "http://www.w3.org/Graphics/SVG/1.1/DTD/svg11.dtd">
<svg version="1.1" id="Capa_1" xmlns="http://www.w3.org/2000/svg" xmlns:xlink="http://www.w3.org/1999/xlink" x="0px" y="0px"
	 width="306px" height="306px" viewBox="0 0 306 306" enable-background="new 0 0 306 306" xml:space="preserve">
<g id="_x37_7_Essential_Icons_70_">
	<path id="User" fill="#333333" d="M189.485,161.631c25.5-15.692,41.977-46.685,41.977-75.323C231.461,45.508,198.115,0,153,0
		S74.538,45.508,74.538,86.308c0,28.639,16.478,59.631,41.978,75.323C56.1,177.715,11.769,233.031,11.769,298.154
		c0,4.314,3.531,7.846,7.847,7.846h266.77c4.315,0,7.846-3.531,7.846-7.846C294.231,233.031,249.9,177.715,189.485,161.631z
		 M90.231,86.308c0-40.408,33.347-70.615,62.77-70.615s62.769,30.208,62.769,70.615S182.423,156.923,153,156.923
		S90.231,126.715,90.231,86.308z M27.854,290.308C31.777,224.793,86.7,172.615,153,172.615s121.223,52.178,125.146,117.692H27.854z"
		/>
</g>
</svg>
