<?xml version="1.0" encoding="utf-8"?>
<!-- Generator: Adobe Illustrator 15.0.2, SVG Export Plug-In . SVG Version: 6.00 Build 0)  -->
<!DOCTYPE svg PUBLIC "-//W3C//DTD SVG 1.1//EN" "http://www.w3.org/Graphics/SVG/1.1/DTD/svg11.dtd">
<svg version="1.1" id="Capa_1" xmlns="http://www.w3.org/2000/svg" xmlns:xlink="http://www.w3.org/1999/xlink" x="0px" y="0px"
	 width="610px" height="608px" viewBox="-156.5 -154.5 610 608" enable-background="new -156.5 -154.5 610 608"
	 xml:space="preserve">
<path fill="none" stroke="#333333" stroke-width="30" stroke-linecap="round" stroke-miterlimit="10" d="M125.5-140H-67.219
	c-39.9,0-72.25,32.35-72.25,72.25v433.5c0,39.9,32.35,72.25,72.25,72.25H125.5"/>
<path fill="#333333" d="M168.875,167.125H34.25c-10.558,0-19.125-8.567-19.125-19.125c0-10.557,8.567-19.125,19.125-19.125h134.625
	h-0.75h95.625c10.557,0,19.125,8.568,19.125,19.125c0,10.558-8.568,19.125-19.125,19.125h-95.625"/>
<path fill="#333333" d="M182.569,93.99l-3.271-3.271c-7.466-7.465-7.466-19.582,0-27.047c7.465-7.464,19.581-7.465,27.047,0
	l3.271,3.271l-0.53-0.53l67.617,67.617c7.464,7.464,7.464,19.582,0,27.047c-7.466,7.466-19.582,7.464-27.047,0L182.038,93.46"/>
<path fill="#333333" d="M209.615,229.606l-3.271,3.271c-7.466,7.466-19.581,7.466-27.047,0c-7.464-7.465-7.466-19.581,0-27.047
	l3.271-3.271l-0.53,0.53l67.617-67.617c7.464-7.464,19.582-7.464,27.047,0c7.466,7.466,7.464,19.582,0,27.047l-67.617,67.617"/>
</svg>
