<?xml version="1.0" encoding="utf-8"?>
<!-- Generator: Adobe Illustrator 15.0.2, SVG Export Plug-In . SVG Version: 6.00 Build 0)  -->
<!DOCTYPE svg PUBLIC "-//W3C//DTD SVG 1.1//EN" "http://www.w3.org/Graphics/SVG/1.1/DTD/svg11.dtd">
<svg version="1.1" id="Capa_1" xmlns="http://www.w3.org/2000/svg" xmlns:xlink="http://www.w3.org/1999/xlink" x="0px" y="0px"
	 width="290px" height="217.35px" viewBox="-237.649 0 290 217.35" enable-background="new -237.649 0 290 217.35"
	 xml:space="preserve">
<g>
	
		<image overflow="visible" opacity="0.35" width="296" height="224" xlink:href="64A938E8.png"  transform="matrix(1 0 0 1 -240.6494 -3.6499)">
	</image>
	<g>
		<g>
			<g>
				<path fill="#FFFFFF" d="M-109.033,201.155c-12.816,12.813-33.615,12.813-46.424,0l-71.929-71.934
					c-12.819-12.807-12.819-33.605,0-46.416c12.81-12.818,33.605-12.818,46.424,0l42.854,42.852c3.235,3.225,8.488,3.225,11.729,0
					L-10.34,9.614c12.813-12.819,33.611-12.819,46.43,0c6.15,6.152,9.611,14.503,9.611,23.208c0,8.703-3.461,17.055-9.611,23.209
					L-109.033,201.155z"/>
			</g>
		</g>
	</g>
</g>
</svg>
